<?xml version="1.0"?>
<svg xmlns="http://www.w3.org/2000/svg" viewBox="0 0 32 32">
    <path style="text-indent:0;text-align:start;line-height:normal;text-transform:none;block-progression:tb;-inkscape-font-specification:Bitstream Vera Sans" d="M 9 5 L 9 27 L 11 27 L 11 5 L 9 5 z M 21 5 L 21 27 L 23 27 L 23 5 L 21 5 z M 5 11 L 5 21 L 7 21 L 7 11 L 5 11 z M 17 11 L 17 21 L 19 21 L 19 11 L 17 11 z M 25 11 L 25 21 L 27 21 L 27 11 L 25 11 z M 1 14 L 1 18 L 3 18 L 3 14 L 1 14 z M 13 14 L 13 18 L 15 18 L 15 14 L 13 14 z M 29 14 L 29 18 L 31 18 L 31 14 L 29 14 z"/>
</svg>
