<?xml version="1.0" encoding="UTF-8" standalone="no"?>
<svg
   xmlns:dc="http://purl.org/dc/elements/1.1/"
   xmlns:cc="http://creativecommons.org/ns#"
   xmlns:rdf="http://www.w3.org/1999/02/22-rdf-syntax-ns#"
   xmlns:svg="http://www.w3.org/2000/svg"
   xmlns="http://www.w3.org/2000/svg"
   xmlns:sodipodi="http://sodipodi.sourceforge.net/DTD/sodipodi-0.dtd"
   xmlns:inkscape="http://www.inkscape.org/namespaces/inkscape"
   viewBox="0 0 234.40172 245.42311"
   height="245.42311"
   width="234.40172"
   version="1.1"
   id="svg3336"
   sodipodi:docname="icon.svg"
   inkscape:version="0.92.2 (5c3e80d, 2017-08-06)">
  <sodipodi:namedview
     pagecolor="#ffffff"
     bordercolor="#666666"
     borderopacity="1"
     objecttolerance="10"
     gridtolerance="10"
     guidetolerance="10"
     inkscape:pageopacity="0"
     inkscape:pageshadow="2"
     inkscape:window-width="1563"
     inkscape:window-height="1125"
     id="namedview18"
     showgrid="false"
     inkscape:zoom="2.450373"
     inkscape:cx="74.366878"
     inkscape:cy="102.37558"
     inkscape:window-x="266"
     inkscape:window-y="152"
     inkscape:window-maximized="0"
     inkscape:current-layer="svg3336"
     fit-margin-top="0"
     fit-margin-left="0"
     fit-margin-right="0"
     fit-margin-bottom="0" />
  <metadata
     id="metadata3342">
    <rdf:RDF>
      <cc:Work
         rdf:about="">
        <dc:format>image/svg+xml</dc:format>
        <dc:type
           rdf:resource="http://purl.org/dc/dcmitype/StillImage" />
        <dc:title></dc:title>
      </cc:Work>
    </rdf:RDF>
  </metadata>
  <defs
     id="defs3340" />
  <path
     style="fill:#000000;stroke-width:1.49893522"
     d="m 13.738942,14.854234 c -6.6730033,-0.132658 -6.6730033,9.945158 0,9.8125 h 39.449219 l 21.919922,40.824219 v 0.394531 l 72.156247,-0.0918 V 56.244859 H 81.281911 L 60.445973,17.440172 c -0.854761,-1.592025 -2.51529,-2.585492 -4.322265,-2.585938 z m 133.525388,52.939453 -72.156247,0.0918 v 91.869133 l 11.496098,-0.0156 c 5.67285,-4.27341 13.16853,-10.33511 22.259759,-18.69922 2.8583,-2.6297 5.60762,-5.29105 8.25,-7.93555 l -26.150389,0.0703 c -2.67379,0.054 -2.68175,-5.04066 -0.008,-5 l 31.050779,-0.082 c 13.98613,-14.65181 23.7534,-27.66496 25.25781,-29.695307 z m -38.68111,11.204845 c 0,0 13.35807,10.898711 6.98423,18.776961 -5.88673,7.115637 -5.45228,13.232517 -3.9818,18.260527 0,0 -16.666649,-8.24655 -8.28854,-19.513137 9.01034,-9.15786 6.76501,-15.498741 5.28611,-17.524351 z m 10.75885,12.304351 c 0,0 8.58124,12.142347 2.12121,17.179967 -9.87763,7.55317 -7.33611,5.71798 -7.33711,5.71798 -0.23853,-1.02002 -3.47796,-7.56924 3.54417,-14.874427 2.86918,-3.47936 2.25403,-6.78894 1.67173,-8.02352 z m 27.92226,45.315017 c -1.78837,1.95801 -12.5219,13.63143 -22.54883,23.07227 l 22.54883,-0.0293 z m 0,25.04297 -24.69336,0.0312 c -0.19031,0.17452 -0.38697,0.36696 -0.57617,0.53906 -12.39509,11.2756 -29.990899,23.83321 -30.353509,24.0918 h 48.347649 l 22.98633,42.81055 c 0.85509,1.59264 2.51654,2.58621 4.32422,2.58594 h 50.02148 c 2.71019,0 4.90723,-2.19704 4.90723,-4.90723 0,-2.71019 -2.19704,-4.90723 -4.90723,-4.90723 h -47.08789 l -22.96875,-42.77734 z m -63.365229,0.082 -8.791018,0.0117 v 5.94922 c 0.945696,-0.56561 4.044985,-2.5075 8.791018,-5.96094 z"
     id="path10-0"
     inkscape:connector-curvature="0"
     sodipodi:nodetypes="cccccccccccccccccccccccccccccccccccccccccccssscccccccc" />
  <ellipse
     ry="6.9947662"
     rx="7.1174817"
     cy="140.57126"
     cx="127.47187"
     id="path4156"
     style="fill:#000000;stroke:none;stroke-width:0.5" />
  <g
     style="fill:#000000"
     transform="matrix(0.5,0,0,0.5,31.404542,13.900041)"
     id="g4177">
    <path
       inkscape:connector-curvature="0"
       style="fill:#000000;fill-opacity:1;fill-rule:evenodd;stroke:none;stroke-width:1px;stroke-linecap:butt;stroke-linejoin:miter;stroke-opacity:1"
       d="m 217.45136,240.52182 c 0,0 34.57754,-44.65346 50.0678,-68.22966 13.72144,-20.88405 13.55732,-21.78429 21.59788,-39.75973 8.65012,-19.33817 5.39947,-25.52476 5.39947,-25.52476 0,0 -10.41063,-15.359277 -11.90338,-13.130533 0,0 1.14591,-0.02731 -0.36814,10.676223 -0.79725,5.63615 -1.42483,7.00146 -5.89033,16.68927 -4.31942,9.37087 -6.53839,13.69201 -11.78066,22.5796 -6.5938,11.17894 -14.26006,21.69152 -21.59788,32.39681 -4.97906,7.26404 -15.21669,21.59788 -15.21669,21.59788 l -24.05218,29.94251 z"
       id="path4163" />
    <path
       inkscape:connector-curvature="0"
       style="fill:#000000;fill-opacity:1;fill-rule:evenodd;stroke:none;stroke-width:1px;stroke-linecap:butt;stroke-linejoin:miter;stroke-opacity:1"
       d="m 277.7728,90.343063 c 0,0 -3.76388,-4.844236 -6.32675,-6.405858 -2.34222,-1.427173 -5.13675,-2.079282 -7.85377,-2.454304 -5.67524,-0.783338 -10.99884,-0.956935 -17.18013,0.490861 -2.3683,0.554708 -4.31992,2.728907 -5.39947,4.908608 -1.67652,3.385044 -0.98172,11.903376 -0.98172,11.903376 l 16.68926,-0.122715 c 0,0 7.06458,-3.830825 10.79894,-5.285476 3.32133,-1.293759 10.25364,-3.034492 10.25364,-3.034492 z"
       id="path4175" />
  </g>
  <path
     style="color:#000000;font-style:normal;font-variant:normal;font-weight:normal;font-stretch:normal;font-size:medium;line-height:normal;font-family:sans-serif;font-variant-ligatures:normal;font-variant-position:normal;font-variant-caps:normal;font-variant-numeric:normal;font-variant-alternates:normal;font-feature-settings:normal;text-indent:0;text-align:start;text-decoration:none;text-decoration-line:none;text-decoration-style:solid;text-decoration-color:#000000;letter-spacing:normal;word-spacing:normal;text-transform:none;writing-mode:lr-tb;direction:ltr;text-orientation:mixed;dominant-baseline:auto;baseline-shift:baseline;text-anchor:start;white-space:normal;shape-padding:0;clip-rule:nonzero;display:inline;overflow:visible;visibility:visible;opacity:1;isolation:auto;mix-blend-mode:normal;color-interpolation:sRGB;color-interpolation-filters:linearRGB;solid-color:#000000;solid-opacity:1;vector-effect:none;fill:#000000;fill-opacity:1;fill-rule:evenodd;stroke:none;stroke-width:10;stroke-linecap:round;stroke-linejoin:round;stroke-miterlimit:4;stroke-dasharray:none;stroke-dashoffset:0;stroke-opacity:1;color-rendering:auto;image-rendering:auto;shape-rendering:auto;text-rendering:auto;enable-background:accumulate"
     d="m 198.03582,207.13157 a 5.0005,5.0005 0 0 0 -2.14649,9.48438 l 21.33203,10.9043 -21.11914,8.24414 a 5.000526,5.000526 0 1 0 3.63672,9.3164 l 31.48242,-12.29296 a 5.0005,5.0005 0 0 0 0.45703,-9.10938 l -31.23828,-15.9668 a 5.0005,5.0005 0 0 0 -2.40429,-0.58008 z"
     id="path4166-9"
     inkscape:connector-curvature="0" />
  <path
     style="color:#000000;font-style:normal;font-variant:normal;font-weight:normal;font-stretch:normal;font-size:medium;line-height:normal;font-family:sans-serif;font-variant-ligatures:normal;font-variant-position:normal;font-variant-caps:normal;font-variant-numeric:normal;font-variant-alternates:normal;font-feature-settings:normal;text-indent:0;text-align:start;text-decoration:none;text-decoration-line:none;text-decoration-style:solid;text-decoration-color:#000000;letter-spacing:normal;word-spacing:normal;text-transform:none;writing-mode:lr-tb;direction:ltr;text-orientation:mixed;dominant-baseline:auto;baseline-shift:baseline;text-anchor:start;white-space:normal;shape-padding:0;clip-rule:nonzero;display:inline;overflow:visible;visibility:visible;opacity:1;isolation:auto;mix-blend-mode:normal;color-interpolation:sRGB;color-interpolation-filters:linearRGB;solid-color:#000000;solid-opacity:1;vector-effect:none;fill:#000000;fill-opacity:1;fill-rule:evenodd;stroke:none;stroke-width:10;stroke-linecap:round;stroke-linejoin:round;stroke-miterlimit:4;stroke-dasharray:none;stroke-dashoffset:0;stroke-opacity:1;color-rendering:auto;image-rendering:auto;shape-rendering:auto;text-rendering:auto;enable-background:accumulate"
     d="M 36.215505,7.1852671e-4 A 5.0005,5.0005 0 0 0 33.961599,0.58079653 L 2.7233167,16.547594 a 5.0005,5.0005 0 0 0 0.457032,9.109375 L 34.664723,37.949937 a 5.0005286,5.0005286 0 1 0 3.636719,-9.316406 L 17.180349,20.387437 38.51238,9.4850935 A 5.0005,5.0005 0 0 0 36.215505,7.1852671e-4 Z"
     id="path4166-9-8"
     inkscape:connector-curvature="0" />
  <path
     inkscape:connector-curvature="0"
     d="m 103.34129,188.15787 c 0,3.68454 -2.61615,6.66773 -5.844749,6.66773 -3.22651,0 -5.84476,-2.98319 -5.84476,-6.66773 z"
     id="path6-1"
     style="stroke-width:2.24840283" />
  <path
     inkscape:connector-curvature="0"
     d="m 132.38055,188.15787 c 0,3.68454 -2.61615,6.66773 -5.84475,6.66773 -3.22651,0 -5.84476,-2.98319 -5.84476,-6.66773 z"
     id="path8-4"
     style="stroke-width:2.24840283" />
  <circle
     style="fill:#ffffff;fill-opacity:1;stroke:none;stroke-width:3.34815693;stroke-linecap:round;stroke-linejoin:miter;stroke-miterlimit:4;stroke-dasharray:none;stroke-dashoffset:0;stroke-opacity:1"
     id="path4549"
     cx="111.74906"
     cy="172.38853"
     r="7.5" />
  <g
     style="fill:#000000"
     transform="matrix(0.5,0,0,0.5,31.229097,13.882599)"
     id="g4196">
    <path
       inkscape:connector-curvature="0"
       style="fill:#000000;fill-opacity:1;fill-rule:evenodd;stroke:none;stroke-width:1px;stroke-linecap:butt;stroke-linejoin:miter;stroke-opacity:1"
       d="m 81.973762,258.19281 0.490861,-29.94252 c -3.788295,3.91921 -7.393189,8.01568 -10.798939,12.27152 -5.732275,7.16308 -10.894075,14.76941 -15.707547,22.57961 -4.72893,7.67303 -9.126166,15.5485 -13.253243,23.56132 -3.547116,6.88682 -6.93067,13.98138 -8.344634,21.59787 -0.931334,5.01675 -0.982651,10.20974 -10e-7,15.21669 0.418715,2.1335 1.039162,4.26588 2.225389,6.08797 0.593113,0.91105 1.325695,1.73667 2.194421,2.3902 0.868727,0.65353 1.875875,1.13214 2.943103,1.33905 0.808077,0.15666 1.646229,0.15666 2.454305,-10e-6 0.799678,-4.29342 1.78259,-8.55271 2.945165,-12.76238 1.709604,-6.19046 3.809391,-12.27709 6.381191,-18.16185 3.019412,-6.90898 6.67803,-13.51669 10.308077,-20.12529 2.976514,-5.41883 5.958259,-10.87725 9.817217,-15.70755 2.460391,-3.0797 5.264937,-5.88424 8.344635,-8.34463 z"
       id="path4188" />
    <path
       inkscape:connector-curvature="0"
       style="fill:#000000;fill-opacity:1;fill-rule:evenodd;stroke:none;stroke-width:1px;stroke-linecap:butt;stroke-linejoin:miter;stroke-opacity:1"
       d="m 42.704894,340.16657 c 0.995977,2.8086 2.699121,5.36332 4.908608,7.36291 2.243432,2.03031 4.978938,3.4741 7.853774,4.41775 4.406313,1.44635 9.168547,1.73791 13.744104,0.98172 3.019678,-0.49905 5.947165,-1.44185 8.835495,-2.4543 5.680444,-1.99117 11.263505,-4.26567 16.689269,-6.87206 10.208286,-4.90379 19.831366,-10.96951 28.960786,-17.67099 10.52792,-7.72805 20.4116,-16.30336 30.92424,-24.05218 6.56279,-4.8374 13.51687,-9.49805 18.16185,-16.19841 1.7607,-2.53981 3.15993,-5.35089 3.92689,-8.34463 0.69577,-2.71584 0.86342,-5.56594 0.49086,-8.34463 -1.64553,2.15949 -3.87186,3.87205 -6.38119,4.9086 -3.72394,1.53829 -8.05672,1.53829 -11.78066,0 -8.57627,7.82395 -17.41857,15.35628 -26.50649,22.5796 -9.07117,7.21 -18.38843,14.1131 -27.97907,20.61616 -6.877648,4.66348 -13.897132,9.12194 -21.107016,13.25324 -6.649014,3.80992 -13.582329,7.385 -21.107016,8.8355 -3.874291,0.74683 -7.835604,0.91532 -11.780661,0.98172 -2.617677,0.0441 -5.236096,0.0441 -7.853773,0 z"
       id="path4192" />
  </g>
</svg>
