<?xml version="1.0" encoding="utf-8"?>
<!-- Generator: Adobe Illustrator 18.1.1, SVG Export Plug-In . SVG Version: 6.00 Build 0)  -->
<!DOCTYPE svg PUBLIC "-//W3C//DTD SVG 1.1//EN" "http://www.w3.org/Graphics/SVG/1.1/DTD/svg11.dtd">
<svg version="1.1" id="Ebene_1" xmlns="http://www.w3.org/2000/svg" xmlns:xlink="http://www.w3.org/1999/xlink" x="0px" y="0px"
	 viewBox="0 0 595.3 841.9" enable-background="new 0 0 595.3 841.9" xml:space="preserve">
<g>
	<path fill="#B22222" d="M504.5,542.6v-74.8h-26.9v89.5l6.3,3.8c21,13,33.2,35.3,33.2,60.1c0,39.1-31.5,70.6-70.6,70.6
		c-38.6,0-70.6-31.5-70.6-70.6c0-24.4,12.6-47.1,33.2-60.1l6.3-3.8V354.4c0-16.8,13.9-30.7,30.7-30.7s30.7,13.9,30.7,30.7v32.8h26.9
		v-32.8c0-31.9-26-58-58-58c-31.9,0-58,26-58,58V393c-7.6-16-16.8-31.1-26-45c-46.6-71-92.8-119.7-91.6-209.6
		c0,0,2.9-24.4-11.8-11.3l-10.1,9.2C130.2,248.9-76,540,153.8,641.7c67.2,29.8,142.8,21,195.3-19.7c0.4,53.4,44.1,96.6,97.5,96.6
		c53.8,0,97.5-43.7,97.5-97.5C544,589.6,529.3,561,504.5,542.6z M129.4,573.2c-63.4-24.8-28.1-155-9.7-207.9l1.7-4.2
		c2.5-6.3,2.5,3.8,2.5,3.8s-4.2,56.3,15.1,86.5c17.2,26.5,37,41.2,41.2,59.2C191.6,561.9,158,584.6,129.4,573.2z"/>
	<rect x="477.7" y="414" fill="#B22222" width="26.9" height="26.9"/>
	<path fill="#B22222" d="M433.1,364.4v218.5c-17.2,5.5-29.8,21.8-29.8,41.2c0,23.9,19.3,43.3,43.3,43.3c23.9,0,43.3-19.3,43.3-43.3
		c0-19.3-12.6-35.3-29.8-41.2V364.4L433.1,364.4L433.1,364.4z"/>
</g>
</svg>
