<?xml version="1.0" encoding="utf-8"?>
<!-- Svg Vector Icons : http://www.onlinewebfonts.com/icon -->
<!DOCTYPE svg PUBLIC "-//W3C//DTD SVG 1.1//EN" "http://www.w3.org/Graphics/SVG/1.1/DTD/svg11.dtd">
<svg version="1.1" xmlns="http://www.w3.org/2000/svg" xmlns:xlink="http://www.w3.org/1999/xlink" x="0px" y="0px" viewBox="0 0 1000 1000" enable-background="new 0 0 1000 1000" xml:space="preserve">
<metadata> Svg Vector Icons : http://www.onlinewebfonts.com/icon </metadata>
<g><path d="M872.9,339.2c-78.3,12.9-206.1,16.4-290.9-144.6c-91-173-238-178.3-324-162.5c-41.8,7.7-73.1,42.7-73.1,76.6v430.1c24.7,9.4,51.2-0.4,58-1.8c1.8-0.4,3.3-0.7,5.3-1.1c54.7-12,112.4-17.7,255.5,51c179.4,86,336.4-72.4,397.2-182.7c4.4-7.7,19-44.2,19-79.2C898.7,333.8,872.9,339.2,872.9,339.2z"/><path d="M132.6,10h-35c-9.6,0-17.5,7.9-17.5,17.5v945c0,9.6,7.9,17.5,17.5,17.5h35c9.6,0,17.5-7.9,17.5-17.5v-945C150.1,17.9,142.2,10,132.6,10z"/></g>
</svg>