<?xml version="1.0" encoding="utf-8"?>
<!-- Svg Vector Icons : http://www.onlinewebfonts.com/icon -->
<!DOCTYPE svg PUBLIC "-//W3C//DTD SVG 1.1//EN" "http://www.w3.org/Graphics/SVG/1.1/DTD/svg11.dtd">
<svg version="1.1" xmlns="http://www.w3.org/2000/svg" xmlns:xlink="http://www.w3.org/1999/xlink" x="0px" y="0px" viewBox="0 0 1000 1000" enable-background="new 0 0 1000 1000" xml:space="preserve">
<metadata> Svg Vector Icons : http://www.onlinewebfonts.com/icon </metadata>
<g><g transform="translate(0.000000,511.000000) scale(0.100000,-0.100000)"><path d="M8601,4720.9c-545.5-148.8-1220.9-330.6-1499.6-403.8c-564.4-153.5-614-179.5-614-330.6c0-80.3,23.6-113.3,295.2-387.3c248-248,299.9-314.1,311.7-387.3l14.2-89.7l-3318-3320.3C1233-2758,460.8-3544.4,420.6-3629.4c-75.6-163-70.8-401.5,16.5-566.8c153.5-295.2,512.5-420.4,831.3-290.5c56.7,23.6,1161.9,1112.3,3388.8,3339.2C6477.9,673.3,7991.7,2168.1,8029.5,2179.9c103.9,40.2,174.8-4.7,477-302.3c155.8-153.5,307-285.8,337.7-292.8c75.6-16.5,188.9,26,219.6,82.7c54.3,99.2,850.2,3126.7,836,3178.6c-23.6,94.5-96.8,146.4-205.5,144.1C9637.7,4990.1,9146.5,4867.4,8601,4720.9z"/><path d="M1941.4,4647.7c-885.6-137-1582.2-779.3-1799.5-1653.1c-61.4-252.7-54.3-743.9,14.2-1001.3c222-828.9,878.5-1438.2,1712.1-1584.6c269.2-44.9,739.2-16.5,982.4,61.4c363.7,118.1,595.1,252.7,859.6,505.4c1067.4,1022.5,807.7,2791.3-507.7,3452.6c-302.3,151.1-552.6,212.5-895,222C2144.5,4654.8,1981.6,4652.5,1941.4,4647.7z M2626.3,3351.2c588-281,706.1-1074.5,224.3-1509c-460.5-415.6-1169-273.9-1445.3,288.1c-73.2,146.4-77.9,174.8-77.9,394.4c2.4,207.8,9.4,252.7,66.1,366c118.1,243.2,304.6,415.6,543.1,500.6C2125.6,3459.9,2439.7,3441,2626.3,3351.2z"/><path d="M7113.2-524c-885.6-137-1579.9-774.6-1799.5-1653.1c-61.4-250.3-54.3-741.5,14.2-1001.3c170-637.6,573.9-1126.5,1159.5-1402.8c359-167.7,470-191.3,932.8-188.9c375.5,0,413.3,4.7,602.2,66.1c368.4,122.8,595.1,257.4,859.6,507.7c1067.4,1022.5,807.6,2791.3-510.1,3452.6c-299.9,151.1-550.2,212.5-892.6,222C7316.3-516.9,7153.4-519.3,7113.2-524z M7798-1820.5c394.4-191.3,604.6-635.2,498.3-1050.9c-73.2-281-252.7-491.2-531.3-621.1c-137-66.1-179.5-73.2-356.6-73.2c-148.8,2.4-236.2,16.5-337.7,54.3c-188.9,75.5-394.4,269.2-493.6,469.9c-73.2,146.4-77.9,174.8-77.9,394.4c0,205.5,9.5,252.7,63.8,370.8c108.6,236.2,323.5,425.1,569.1,505.4c61.4,21.2,179.5,30.7,314.1,26C7625.7-1749.7,7682.3-1761.5,7798-1820.5z"/></g></g>
</svg>