<?xml version="1.0" standalone="no"?>
<!DOCTYPE svg PUBLIC "-//W3C//DTD SVG 1.1//EN"
  "http://www.w3.org/Graphics/SVG/1.1/DTD/svg11.dtd">
<!-- Created with matplotlib (http://matplotlib.sourceforge.net/) -->
<svg width="585" height="441" viewBox="0 0 585 441"
   xmlns="http://www.w3.org/2000/svg"
   xmlns:xlink="http://www.w3.org/1999/xlink"
   version="1.1"
   id="svg1">
<g id="figure1">
<polygon style="fill: #ffffff; stroke: #ffffff; stroke-width: 1.000000; stroke-linejoin: miter; stroke-linecap: square;  opacity: 1.000000"  points = "0.000000,441.000000 0.000000,0.000000 585.000000,0.000000 585.000000,441.000000"/>
<g id="axes1">
<defs>
    <clipPath id="-110930404465986990">
    <rect x="1.705539" y="20.571429" width="581.588921" height="399.857143"
    style="stroke: gray; fill: none;"/>
    </clipPath>
</defs>
<path style="fill: none; stroke: #0000ff; stroke-width: 1.000000; stroke-linejoin: miter; stroke-linecap: square;  opacity: 1.000000" clip-path="url(#-110930404465986990)" d="M 1.705539,220.500000 L 2.028644,220.420162 L 2.351749,220.182246 L 2.674854,219.791022 L 2.997959,219.254360 L 3.321064,218.583111 L 3.644169,217.790944 L 3.967274,216.894141 L 4.290379,215.911344 L 4.613484,214.863278 L 4.936589,213.772431 L 5.259694,212.662706 L 5.582799,211.559055 L 5.905904,210.487088 L 6.229009,209.472671 L 6.552114,208.541513 L 6.875219,207.718757 L 7.198324,207.028563 L 7.521429,206.493711 L 7.844534,206.135214 L 8.167638,205.971945 L 8.490743,206.020304 L 8.813848,206.293897 L 9.136953,206.803265 L 9.460058,207.555643 L 9.783163,208.554764 L 10.106268,209.800713 L 10.429373,211.289821 L 10.752478,213.014618 L 11.075583,214.963833 L 11.398688,217.122449 L 11.721793,219.471808 L 12.044898,221.989769 L 12.368003,224.650920 L 12.691108,227.426836 L 13.014213,230.286380 L 13.337318,233.196053 L 13.660423,236.120378 L 13.983528,239.022321 L 14.306633,241.863742 L 14.629738,244.605871 L 14.952843,247.209796 L 15.275948,249.636974 L 15.599052,251.849742 L 15.922157,253.811829 L 16.245262,255.488860 L 16.568367,256.848852 L 16.891472,257.862685 L 17.214577,258.504551 L 17.537682,258.752369 L 17.860787,258.588161 L 18.183892,257.998391 L 18.506997,256.974251 L 18.830102,255.511893 L 19.153207,253.612611 L 19.476312,251.282962 L 19.799417,248.534820 L 20.122522,245.385371 L 20.445627,241.857045 L 20.768732,237.977379 L 21.091837,233.778815 L 21.414942,229.298441 L 21.738047,224.577662 L 22.061152,219.661820 L 22.384257,214.599754 L 22.707362,209.443317 L 23.030466,204.246834 L 23.353571,199.066533 L 23.676676,193.959937 L 23.999781,188.985225 L 24.322886,184.200577 L 24.645991,179.663507 L 24.969096,175.430185 L 25.292201,171.554765 L 25.615306,168.088723 L 25.938411,165.080210 L 26.261516,162.573440 L 26.584621,160.608093 L 26.907726,159.218783 L 27.230831,158.434551 L 27.553936,158.278426 L 27.877041,158.767042 L 28.200146,159.910321 L 28.523251,161.711225 L 28.846356,164.165582 L 29.169461,167.261991 L 29.492566,170.981809 L 29.815671,175.299211 L 30.138776,180.181338 L 30.461880,185.588530 L 30.784985,191.474625 L 31.108090,197.787354 L 31.431195,204.468796 L 31.754300,211.455908 L 32.077405,218.681128 L 32.400510,226.073027 L 32.723615,233.557019 L 33.046720,241.056121 L 33.369825,248.491751 L 33.692930,255.784549 L 34.016035,262.855228 L 34.339140,269.625436 L 34.662245,276.018621 L 34.985350,281.960888 L 35.308455,287.381842 L 35.631560,292.215407 L 35.954665,296.400605 L 36.277770,299.882302 L 36.600875,302.611890 L 36.923980,304.547915 L 37.247085,305.656635 L 37.570190,305.912503 L 37.893294,305.298568 L 38.216399,303.806787 L 38.539504,301.438250 L 38.862609,298.203306 L 39.185714,294.121589 L 39.508819,289.221949 L 39.831924,283.542281 L 40.155029,277.129254 L 40.478134,270.037941 L 40.801239,262.331357 L 41.124344,254.079899 L 41.447449,245.360711 L 41.770554,236.256953 L 42.093659,226.857011 L 42.416764,217.253631 L 42.739869,207.542996 L 43.062974,197.823761 L 43.386079,188.196043 L 43.709184,178.760381 L 44.032289,169.616688 L 44.355394,160.863184 L 44.678499,152.595344 L 45.001603,144.904859 L 45.324708,137.878618 L 45.647813,131.597740 L 45.970918,126.136647 L 46.294023,121.562201 L 46.617128,117.932905 L 46.940233,115.298195 L 47.263338,113.697801 L 47.586443,113.161227 L 47.909548,113.707306 L 48.232653,115.343888 L 48.555758,118.067622 L 48.878863,121.863862 L 49.201968,126.706689 L 49.525073,132.559053 L 49.848178,139.373029 L 50.171283,147.090200 L 50.494388,155.642143 L 50.817493,164.951031 L 51.140598,174.930344 L 51.463703,185.485667 L 51.786808,196.515596 L 52.109913,207.912707 L 52.433017,219.564616 L 52.756122,231.355093 L 53.079227,243.165226 L 53.402332,254.874629 L 53.725437,266.362677 L 54.048542,277.509756 L 54.371647,288.198510 L 54.694752,298.315087 L 55.017857,307.750346 L 55.340962,316.401041 L 55.664067,324.170948 L 55.987172,330.971927 L 56.310277,336.724913 L 56.633382,341.360827 L 56.956487,344.821380 L 57.279592,347.059780 L 57.602697,348.041327 L 57.925802,347.743882 L 58.248907,346.158212 L 58.572012,343.288206 L 58.895117,339.150957 L 59.218222,333.776698 L 59.541327,327.208618 L 59.864431,319.502525 L 60.187536,310.726388 L 60.510641,300.959739 L 60.833746,290.292958 L 61.156851,278.826432 L 61.479956,266.669613 L 61.803061,253.939963 L 62.126166,240.761814 L 62.449271,227.265150 L 62.772376,213.584311 L 63.095481,199.856650 L 63.418586,186.221149 L 63.741691,172.816995 L 64.064796,159.782159 L 64.387901,147.251963 L 64.711006,135.357673 L 65.034111,124.225115 L 65.357216,113.973342 L 65.680321,104.713358 L 66.003426,96.546918 L 66.326531,89.565412 L 66.649636,83.848847 L 66.972741,79.464944 L 67.295845,76.468347 L 67.618950,74.899969 L 67.942055,74.786470 L 68.265160,76.139879 L 68.588265,78.957366 L 68.911370,83.221163 L 69.234475,88.898639 L 69.557580,95.942528 L 69.880685,104.291313 L 70.203790,113.869753 L 70.526895,124.589561 L 70.850000,136.350216 L 71.173105,149.039908 L 71.496210,162.536608 L 71.819315,176.709243 L 72.142420,191.418982 L 72.465525,206.520600 L 72.788630,221.863922 L 73.111735,237.295329 L 73.434840,252.659301 L 73.757945,267.799996 L 74.081050,282.562842 L 74.404155,296.796123 L 74.727259,310.352544 L 75.050364,323.090767 L 75.373469,334.876888 L 75.696574,345.585850 L 76.019679,355.102775 L 76.342784,363.324194 L 76.665889,370.159175 L 76.988994,375.530320 L 77.312099,379.374639 L 77.635204,381.644273 L 77.958309,382.307072 L 78.281414,381.347009 L 78.604519,378.764437 L 78.927624,374.576178 L 79.250729,368.815443 L 79.573834,361.531583 L 79.896939,352.789674 L 80.220044,342.669944 L 80.543149,331.267029 L 80.866254,318.689095 L 81.189359,305.056799 L 81.512464,290.502135 L 81.835569,275.167139 L 82.158673,259.202502 L 82.481778,242.766076 L 82.804883,226.021307 L 83.127988,209.135594 L 83.451093,192.278608 L 83.774198,175.620576 L 84.097303,159.330553 L 84.420408,143.574693 L 84.743513,128.514545 L 85.066618,114.305390 L 85.389723,101.094628 L 85.712828,89.020248 L 86.035933,78.209371 L 86.359038,68.776917 L 86.682143,60.824375 L 87.005248,54.438712 L 87.328353,49.691423 L 87.651458,46.637738 L 87.974563,45.315984 L 88.297668,45.747128 L 88.620773,47.934484 L 88.943878,51.863606 L 89.266983,57.502357 L 89.590087,64.801166 L 89.913192,73.693456 L 90.236297,84.096247 L 90.559402,95.910939 L 90.882507,109.024246 L 91.205612,123.309287 L 91.528717,138.626822 L 91.851822,154.826619 L 92.174927,171.748933 L 92.498032,189.226095 L 92.821137,207.084180 L 93.144242,225.144751 L 93.467347,243.226656 L 93.790452,261.147852 L 94.113557,278.727249 L 94.436662,295.786557 L 94.759767,312.152098 L 95.082872,327.656590 L 95.405977,342.140863 L 95.729082,355.455504 L 96.052187,367.462405 L 96.375292,378.036204 L 96.698397,387.065596 L 97.021501,394.454511 L 97.344606,400.123139 L 97.667711,404.008790 L 97.990816,406.066585 L 98.313921,406.269971 L 98.637026,404.611041 L 98.960131,401.100678 L 99.283236,395.768501 L 99.606341,388.662618 L 99.929446,379.849199 L 100.252551,369.411854 L 100.575656,357.450841 L 100.898761,344.082093 L 101.221866,329.436092 L 101.544971,313.656587 L 101.868076,296.899173 L 102.191181,279.329746 L 102.514286,261.122855 L 102.837391,242.459951 L 103.160496,223.527570 L 103.483601,204.515457 L 103.806706,185.614652 L 104.129810,167.015557 L 104.452915,148.906007 L 104.776020,131.469360 L 105.099125,114.882633 L 105.422230,99.314689 L 105.745335,84.924511 L 106.068440,71.859570 L 106.391545,60.254300 L 106.714650,50.228717 L 107.037755,41.887160 L 107.360860,35.317209 L 107.683965,30.588761 L 108.007070,27.753281 L 108.330175,26.843244 L 108.653280,27.871771 L 108.976385,30.832452 L 109.299490,35.699373 L 109.622595,42.427343 L 109.945700,50.952310 L 110.268805,61.191976 L 110.591910,73.046596 L 110.915015,86.399954 L 111.238120,101.120512 L 111.561224,117.062709 L 111.884329,134.068415 L 112.207434,151.968507 L 112.530539,170.584560 L 112.853644,189.730642 L 113.176749,209.215175 L 113.499854,228.842874 L 113.822959,248.416707 L 114.146064,267.739893 L 114.469169,286.617889 L 114.792274,304.860360 L 115.115379,322.283113 L 115.438484,338.709966 L 115.761589,353.974543 L 116.084694,367.921965 L 116.407799,380.410435 L 116.730904,391.312686 L 117.054009,400.517287 L 117.377114,407.929787 L 117.700219,413.473690 L 118.023324,417.091249 L 118.346429,418.744067 L 118.669534,418.413513 L 118.992638,416.100920 L 119.315743,411.827600 L 119.638848,405.634645 L 119.961953,397.582525 L 120.285058,387.750502 L 120.608163,376.235840 L 120.931268,363.152837 L 121.254373,348.631682 L 121.577478,332.817157 L 121.900583,315.867176 L 122.223688,297.951206 L 122.546793,279.248554 L 122.869898,259.946569 L 123.193003,240.238747 L 123.516108,220.322782 L 123.839213,200.398570 L 124.162318,180.666190 L 124.485423,161.323881 L 124.808528,142.566039 L 125.131633,124.581250 L 125.454738,107.550385 L 125.777843,91.644765 L 126.100948,77.024429 L 126.424052,63.836516 L 126.747157,52.213770 L 127.070262,42.273200 L 127.393367,34.114892 L 127.716472,27.820995 L 128.039577,23.454891 L 128.362682,21.060550 L 128.685787,20.662086 L 129.008892,22.263512 L 129.331997,25.848699 L 129.655102,31.381542 L 129.978207,38.806321 L 130.301312,48.048271 L 130.624417,59.014335 L 130.947522,71.594110 L 131.270627,85.660965 L 131.593732,101.073322 L 131.916837,117.676090 L 132.239942,135.302239 L 132.563047,153.774485 L 132.886152,172.907092 L 133.209257,192.507742 L 133.532362,212.379488 L 133.855466,232.322743 L 134.178571,252.137294 L 134.501676,271.624331 L 134.824781,290.588449 L 135.147886,308.839621 L 135.470991,326.195117 L 135.794096,342.481341 L 136.117201,357.535583 L 136.440306,371.207650 L 136.763411,383.361377 L 137.086516,393.875994 L 137.409621,402.647327 L 137.732726,409.588844 L 138.055831,414.632509 L 138.378936,417.729456 L 138.702041,418.850463 L 139.025146,417.986231 L 139.348251,415.147456 L 139.671356,410.364703 L 139.994461,403.688076 L 140.317566,395.186690 L 140.640671,384.947954 L 140.963776,373.076666 L 141.286880,359.693937 L 141.609985,344.935943 L 141.933090,328.952537 L 142.256195,311.905713 L 142.579300,293.967961 L 142.902405,275.320504 L 143.225510,256.151458 L 143.548615,236.653927 L 143.871720,217.024037 L 144.194825,197.458961 L 144.517930,178.154916 L 144.841035,159.305190 L 145.164140,141.098190 L 145.487245,123.715551 L 145.810350,107.330306 L 146.133455,92.105160 L 146.456560,78.190859 L 146.779665,65.724689 L 147.102770,54.829113 L 147.425875,45.610561 L 147.748980,38.158384 L 148.072085,32.543983 L 148.395190,28.820118 L 148.718294,27.020418 L 149.041399,27.159073 L 149.364504,29.230728 L 149.687609,33.210582 L 150.010714,39.054674 L 150.333819,46.700367 L 150.656924,56.067021 L 150.980029,67.056848 L 151.303134,79.555933 L 151.626239,93.435424 L 151.949344,108.552865 L 152.272449,124.753669 L 152.595554,141.872702 L 152.918659,159.735983 L 153.241764,178.162457 L 153.564869,196.965845 L 153.887974,215.956536 L 154.211079,234.943513 L 154.534184,253.736284 L 154.857289,272.146809 L 155.180394,289.991390 L 155.503499,307.092516 L 155.826603,323.280642 L 156.149708,338.395880 L 156.472813,352.289588 L 156.795918,364.825840 L 157.119023,375.882765 L 157.442128,385.353739 L 157.765233,393.148418 L 158.088338,399.193604 L 158.411443,403.433935 L 158.734548,405.832391 L 159.057653,406.370612 L 159.380758,405.049029 L 159.703863,401.886800 L 160.026968,396.921558 L 160.350073,390.208975 L 160.673178,381.822137 L 160.996283,371.850755 L 161.319388,360.400199 L 161.642493,347.590385 L 161.965598,333.554513 L 162.288703,318.437673 L 162.611808,302.395342 L 162.934913,285.591776 L 163.258017,268.198315 L 163.581122,250.391629 L 163.904227,232.351913 L 164.227332,214.261052 L 164.550437,196.300772 L 164.873542,178.650811 L 165.196647,161.487100 L 165.519752,144.980005 L 165.842857,129.292619 L 166.165962,114.579148 L 166.489067,100.983379 L 166.812172,88.637267 L 167.135277,77.659652 L 167.458382,68.155103 L 167.781487,60.212920 L 168.104592,53.906293 L 168.427697,49.291628 L 168.750802,46.408043 L 169.073907,45.277045 L 169.397012,45.902390 L 169.720117,48.270115 L 170.043222,52.348759 L 170.366327,58.089755 L 170.689431,65.427999 L 171.012536,74.282578 L 171.335641,84.557662 L 171.658746,96.143540 L 171.981851,108.917794 L 172.304956,122.746594 L 172.628061,137.486108 L 172.951166,152.984004 L 173.274271,169.081031 L 173.597376,185.612667 L 173.920481,202.410805 L 174.243586,219.305479 L 174.566691,236.126589 L 174.889796,252.705627 L 175.212901,268.877374 L 175.536006,284.481559 L 175.859111,299.364457 L 176.182216,313.380411 L 176.505321,326.393271 L 176.828426,338.277717 L 177.151531,348.920480 L 177.474636,358.221422 L 177.797741,366.094481 L 178.120845,372.468471 L 178.443950,377.287720 L 178.767055,380.512552 L 179.090160,382.119601 L 179.413265,382.101957 L 179.736370,380.469146 L 180.059475,377.246941 L 180.382580,372.477005 L 180.705685,366.216384 L 181.028790,358.536833 L 181.351895,349.524011 L 181.675000,339.276520 L 181.998105,327.904840 L 182.321210,315.530129 L 182.644315,302.282933 L 182.967420,288.301804 L 183.290525,273.731846 L 183.613630,258.723200 L 183.936735,243.429492 L 184.259840,228.006249 L 184.582945,212.609307 L 184.906050,197.393231 L 185.229155,182.509751 L 185.552259,168.106239 L 185.875364,154.324239 L 186.198469,141.298073 L 186.521574,129.153517 L 186.844679,118.006585 L 187.167784,107.962412 L 187.490889,99.114264 L 187.813994,91.542663 L 188.137099,85.314662 L 188.460204,80.483257 L 188.783309,77.086940 L 189.106414,75.149415 L 189.429519,74.679460 L 189.752624,75.670942 L 190.075729,78.102991 L 190.398834,81.940313 L 190.721939,87.133661 L 191.045044,93.620433 L 191.368149,101.325411 L 191.691254,110.161623 L 192.014359,120.031312 L 192.337464,130.827016 L 192.660569,142.432739 L 192.983673,154.725195 L 193.306778,167.575120 L 193.629883,180.848640 L 193.952988,194.408668 L 194.276093,208.116329 L 194.599198,221.832390 L 194.922303,235.418681 L 195.245408,248.739498 L 195.568513,261.662964 L 195.891618,274.062347 L 196.214723,285.817308 L 196.537828,296.815075 L 196.860933,306.951531 L 197.184038,316.132206 L 197.507143,324.273155 L 197.830248,331.301728 L 198.153353,337.157210 L 198.476458,341.791344 L 198.799563,345.168704 L 199.122668,347.266952 L 199.445773,348.076944 L 199.768878,347.602707 L 200.091983,345.861274 L 200.415087,342.882395 L 200.738192,338.708111 L 201.061297,333.392210 L 201.384402,326.999569 L 201.707507,319.605379 L 202.030612,311.294280 L 202.353717,302.159403 L 202.676822,292.301329 L 202.999927,281.826990 L 203.323032,270.848506 L 203.646137,259.481986 L 203.969242,247.846294 L 204.292347,236.061803 L 204.615452,224.249143 L 204.938557,212.527959 L 205.261662,201.015690 L 205.584767,189.826391 L 205.907872,179.069589 L 206.230977,168.849206 L 206.554082,159.262553 L 206.877187,150.399396 L 207.200292,142.341111 L 207.523397,135.159946 L 207.846501,128.918365 L 208.169606,123.668525 L 208.492711,119.451840 L 208.815816,116.298688 L 209.138921,114.228210 L 209.462026,113.248251 L 209.785131,113.355402 L 210.108236,114.535169 L 210.431341,116.762252 L 210.754446,120.000935 L 211.077551,124.205575 L 211.400656,129.321199 L 211.723761,135.284181 L 212.046866,142.023011 L 212.369971,149.459129 L 212.693076,157.507827 L 213.016181,166.079208 L 213.339286,175.079181 L 213.662391,184.410492 L 213.985496,193.973775 L 214.308601,203.668614 L 214.631706,213.394598 L 214.954810,223.052367 L 215.277915,232.544636 L 215.601020,241.777177 L 215.924125,250.659761 L 216.247230,259.107048 L 216.570335,267.039408 L 216.893440,274.383675 L 217.216545,281.073824 L 217.539650,287.051558 L 217.862755,292.266814 L 218.185860,296.678165 L 218.508965,300.253133 L 218.832070,302.968400 L 219.155175,304.809919 L 219.478280,305.772923 L 219.801385,305.861839 L 220.124490,305.090104 L 220.447595,303.479887 L 220.770700,301.061719 L 221.093805,297.874046 L 221.416910,293.962700 L 221.740015,289.380296 L 222.063120,284.185570 L 222.386224,278.442659 L 222.709329,272.220336 L 223.032434,265.591202 L 223.355539,258.630853 L 223.678644,251.417028 L 224.001749,244.028745 L 224.324854,236.545437 L 224.647959,229.046098 L 224.971064,221.608443 L 225.294169,214.308107 L 225.617274,207.217863 L 225.940379,200.406894 L 226.263484,193.940119 L 226.586589,187.877564 L 226.909694,182.273810 L 227.232799,177.177498 L 227.555904,172.630921 L 227.879009,168.669676 L 228.202114,165.322411 L 228.525219,162.610641 L 228.848324,160.548654 L 229.171429,159.143493 L 229.494534,158.395018 L 229.817638,158.296056 L 230.140743,158.832609 L 230.463848,159.984152 L 230.786953,161.723988 L 231.110058,164.019667 L 231.433163,166.833461 L 231.756268,170.122894 L 232.079373,173.841312 L 232.402478,177.938484 L 232.725583,182.361245 L 233.048688,187.054147 L 233.371793,191.960131 L 233.694898,197.021202 L 234.018003,202.179099 L 234.341108,207.375962 L 234.664213,212.554973 L 234.987318,217.660977 L 235.310423,222.641071 L 235.633528,227.445155 L 235.956633,232.026440 L 236.279738,236.341903 L 236.602843,240.352695 L 236.925948,244.024490 L 237.249052,247.327770 L 237.572157,250.238053 L 237.895262,252.736051 L 238.218367,254.807770 L 238.541472,256.444542 L 238.864577,257.642988 L 239.187682,258.404925 L 239.510787,258.737212 L 239.833892,258.651535 L 240.156997,258.164140 L 240.480102,257.295518 L 240.803207,256.070039 L 241.126312,254.515559 L 241.449417,252.662976 L 241.772522,250.545769 L 242.095627,248.199515 L 242.418732,245.661383 L 242.741837,242.969629 L 243.064942,240.163078 L 243.388047,237.280617 L 243.711152,234.360695 L 244.034257,231.440841 L 244.357362,228.557204 L 244.680466,225.744119 L 245.003571,223.033708 L 245.326676,220.455515 L 245.649781,218.036184 L 245.972886,215.799188 L 246.295991,213.764591 L 246.619096,211.948877 L 246.942201,210.364819 L 247.265306,209.021402 L 247.588411,207.923805 L 247.911516,207.073430 L 248.234621,206.467979 L 248.557726,206.101593 L 248.880831,205.965019 L 249.203936,206.045840 L 249.527041,206.328735 L 249.850146,206.795775 L 250.173251,207.426757 L 250.496356,208.199558 L 250.819461,209.090521 L 251.142566,210.074845 L 251.465671,211.126997 L 251.788776,212.221125 L 252.111880,213.331467 L 252.434985,214.432762 L 252.758090,215.500643 L 253.081195,216.512016 L 253.404300,217.445416 L 253.727405,218.281333 L 254.050510,219.002516 L 254.373615,219.594227 L 254.696720,220.044472 L 255.019825,220.344177 L 255.342930,220.487325 L 255.666035,220.471051 L 255.989140,220.295681 L 256.312245,219.964726 L 256.635350,219.484835 L 256.958455,218.865689 L 257.281560,218.119858 L 257.604665,217.262609 L 257.927770,216.311678 L 258.250875,215.286997 L 258.573980,214.210390 L 258.897085,213.105242 L 259.220190,211.996132 L 259.543294,210.908456 L 259.866399,209.868026 L 260.189504,208.900664 L 260.512609,208.031788 L 260.835714,207.285997 L 261.158819,206.686669 L 261.481924,206.255565 L 261.805029,206.012453 L 262.128134,205.974757 L 262.451239,206.157230 L 262.774344,206.571665 L 263.097449,207.226638 L 263.420554,208.127298 L 263.743659,209.275198 L 264.066764,210.668171 L 264.389869,212.300264 L 264.712974,214.161716 L 265.036079,216.238992 L 265.359184,218.514866 L 265.682289,220.968563 L 266.005394,223.575945 L 266.328499,226.309753 L 266.651603,229.139889 L 266.974708,232.033752 L 267.297813,234.956603 L 267.620918,237.871976 L 267.944023,240.742116 L 268.267128,243.528445 L 268.590233,246.192047 L 268.913338,248.694173 L 269.236443,250.996746 L 269.559548,253.062880 L 269.882653,254.857386 L 270.205758,256.347271 L 270.528863,257.502219 L 270.851968,258.295051 L 271.175073,258.702156 L 271.498178,258.703878 L 271.821283,258.284877 L 272.144388,257.434430 L 272.467493,256.146689 L 272.790598,254.420884 L 273.113703,252.261467 L 273.436808,249.678190 L 273.759913,246.686129 L 274.083017,243.305641 L 274.406122,239.562247 L 274.729227,235.486466 L 275.052332,231.113571 L 275.375437,226.483290 L 275.698542,221.639448 L 276.021647,216.629547 L 276.344752,211.504302 L 276.667857,206.317120 L 276.990962,201.123542 L 277.314067,195.980651 L 277.637172,190.946442 L 277.960277,186.079174 L 278.283382,181.436708 L 278.606487,177.075828 L 278.929592,173.051573 L 279.252697,169.416562 L 279.575802,166.220348 L 279.898907,163.508782 L 280.222012,161.323418 L 280.545117,159.700950 L 280.868222,158.672694 L 281.191327,158.264121 L 281.514431,158.494455 L 281.837536,159.376324 L 282.160641,160.915484 L 282.483746,163.110620 L 282.806851,165.953218 L 283.129956,169.427513 L 283.453061,173.510527 L 283.776166,178.172180 L 284.099271,183.375486 L 284.422376,189.076830 L 284.745481,195.226325 L 285.068586,201.768238 L 285.391691,208.641501 L 285.714796,215.780273 L 286.037901,223.114582 L 286.361006,230.571013 L 286.684111,238.073444 L 287.007216,245.543830 L 287.330321,252.903021 L 287.653426,260.071599 L 287.976531,266.970735 L 288.299636,273.523059 L 288.622741,279.653513 L 288.945845,285.290211 L 289.268950,290.365260 L 289.592055,294.815562 L 289.915160,298.583570 L 290.238265,301.618000 L 290.561370,303.874478 L 290.884475,305.316129 L 291.207580,305.914090 L 291.530685,305.647946 L 291.853790,304.506074 L 292.176895,302.485909 L 292.500000,299.594102 L 292.823105,295.846594 L 293.146210,291.268580 L 293.469315,285.894382 L 293.792420,279.767214 L 294.115525,272.938851 L 294.438630,265.469210 L 294.761735,257.425819 L 295.084840,248.883219 L 295.407945,239.922266 L 295.731050,230.629365 L 296.054155,221.095633 L 296.377259,211.415998 L 296.700364,201.688251 L 297.023469,192.012048 L 297.346574,182.487887 L 297.669679,173.216056 L 297.992784,164.295577 L 298.315889,155.823143 L 298.638994,147.892075 L 298.962099,140.591294 L 299.285204,134.004329 L 299.608309,128.208376 L 299.931414,123.273406 L 300.254519,119.261342 L 300.577624,116.225309 L 300.900729,114.208971 L 301.223834,113.245962 L 301.546939,113.359409 L 301.870044,114.561565 L 302.193149,116.853558 L 302.516254,120.225244 L 302.839359,124.655180 L 303.162464,130.110725 L 303.485569,136.548246 L 303.808673,143.913449 L 304.131778,152.141831 L 304.454883,161.159229 L 304.777988,170.882494 L 305.101093,181.220251 L 305.424198,192.073767 L 305.747303,203.337892 L 306.070408,214.902087 L 306.393513,226.651516 L 306.716618,238.468191 L 307.039723,250.232168 L 307.362828,261.822768 L 307.685933,273.119823 L 308.009038,284.004930 L 308.332143,294.362693 L 308.655248,304.081953 L 308.978353,313.056979 L 309.301458,321.188619 L 309.624563,328.385390 L 309.947668,334.564502 L 310.270773,339.652797 L 310.593878,343.587598 L 310.916983,346.317459 L 311.240087,347.802802 L 311.563192,348.016438 L 311.886297,346.943962 L 312.209402,344.584022 L 312.532507,340.948451 L 312.855612,336.062266 L 313.178717,329.963531 L 313.501822,322.703077 L 313.824927,314.344094 L 314.148032,304.961591 L 314.471137,294.641720 L 314.794242,283.480993 L 315.117347,271.585373 L 315.440452,259.069263 L 315.763557,246.054403 L 316.086662,232.668678 L 316.409767,219.044851 L 316.732872,205.319241 L 317.055977,191.630348 L 317.379082,178.117449 L 317.702187,164.919171 L 318.025292,152.172061 L 318.348397,140.009166 L 318.671501,128.558643 L 318.994606,117.942396 L 319.317711,108.274784 L 319.640816,99.661382 L 319.963921,92.197836 L 320.287026,85.968799 L 320.610131,81.046985 L 320.933236,77.492331 L 321.256341,75.351289 L 321.579446,74.656245 L 321.902551,75.425091 L 322.225656,77.660931 L 322.548761,81.351944 L 322.871866,86.471397 L 323.194971,92.977815 L 323.518076,100.815300 L 323.841181,109.914003 L 324.164286,120.190741 L 324.487391,131.549757 L 324.810496,143.883617 L 325.133601,157.074222 L 325.456706,170.993955 L 325.779810,185.506913 L 326.102915,200.470249 L 326.426020,215.735582 L 326.749125,231.150479 L 327.072230,246.559991 L 327.395335,261.808213 L 327.718440,276.739877 L 328.041545,291.201941 L 328.364650,305.045163 L 328.687755,318.125654 L 329.010860,330.306376 L 329.333965,341.458585 L 329.657070,351.463196 L 329.980175,360.212057 L 330.303280,367.609116 L 330.626385,373.571476 L 330.949490,378.030315 L 331.272595,380.931672 L 331.595700,382.237082 L 331.918805,381.924059 L 332.241910,379.986414 L 332.565015,376.434414 L 332.888120,371.294762 L 333.211224,364.610424 L 333.534329,356.440276 L 333.857434,346.858592 L 334.180539,335.954368 L 334.503644,323.830500 L 334.826749,310.602803 L 335.149854,296.398905 L 335.472959,281.357004 L 335.796064,265.624520 L 336.119169,249.356637 L 336.442274,232.714765 L 336.765379,215.864930 L 337.088484,198.976103 L 337.411589,182.218495 L 337.734694,165.761837 L 338.057799,149.773642 L 338.380904,134.417495 L 338.704009,119.851369 L 339.027114,106.225992 L 339.350219,93.683277 L 339.673324,82.354840 L 339.996429,72.360613 L 340.319534,63.807571 L 340.642638,56.788584 L 340.965743,51.381413 L 341.288848,47.647849 L 341.611953,45.633014 L 341.935058,45.364831 L 342.258163,46.853666 L 342.581268,50.092147 L 342.904373,55.055159 L 343.227478,61.700034 L 343.550583,69.966899 L 343.873688,79.779225 L 344.196793,91.044526 L 344.519898,103.655241 L 344.843003,117.489762 L 345.166108,132.413614 L 345.489213,148.280770 L 345.812318,164.935088 L 346.135423,182.211857 L 346.458528,199.939439 L 346.781633,217.940981 L 347.104738,236.036195 L 347.427843,254.043171 L 347.750948,271.780219 L 348.074052,289.067714 L 348.397157,305.729927 L 348.720262,321.596819 L 349.043367,336.505788 L 349.366472,350.303346 L 349.689577,362.846704 L 350.012682,374.005261 L 350.335787,383.661964 L 350.658892,391.714549 L 350.981997,398.076616 L 351.305102,402.678569 L 351.628207,405.468364 L 351.951312,406.412101 L 352.274417,405.494423 L 352.597522,402.718727 L 352.920627,398.107190 L 353.243732,391.700601 L 353.566837,383.558000 L 353.889942,373.756141 L 354.213047,362.388758 L 354.536152,349.565670 L 354.859257,335.411712 L 355.182362,320.065512 L 355.505466,303.678128 L 355.828571,286.411547 L 356.151676,268.437076 L 356.474781,249.933632 L 356.797886,231.085949 L 357.120991,212.082722 L 357.444096,193.114707 L 357.767201,174.372790 L 358.090306,156.046060 L 358.413411,138.319883 L 358.736516,121.374022 L 359.059621,105.380798 L 359.382726,90.503329 L 359.705831,76.893860 L 360.028936,64.692188 L 360.352041,54.024229 L 360.675146,45.000702 L 360.998251,37.715982 L 361.321356,32.247105 L 361.644461,28.652952 L 361.967566,26.973616 L 362.290671,27.229954 L 362.613776,29.423341 L 362.936880,33.535612 L 363.259985,39.529213 L 363.583090,47.347539 L 363.906195,56.915471 L 364.229300,68.140104 L 364.552405,80.911652 L 364.875510,95.104529 L 365.198615,110.578592 L 365.521720,127.180535 L 365.844825,144.745412 L 366.167930,163.098295 L 366.491035,182.056020 L 366.814140,201.429029 L 367.137245,221.023278 L 367.460350,240.642194 L 367.783455,260.088658 L 368.106560,279.166996 L 368.429665,297.684964 L 368.752770,315.455696 L 369.075875,332.299601 L 369.398980,348.046189 L 369.722085,362.535808 L 370.045190,375.621269 L 370.368294,387.169358 L 370.691399,397.062189 L 371.014504,405.198426 L 371.337609,411.494318 L 371.660714,415.884568 L 371.983819,418.323017 L 372.306924,418.783127 L 372.630029,417.258269 L 372.953134,413.761813 L 373.276239,408.327012 L 373.599344,401.006681 L 373.922449,391.872682 L 374.245554,381.015218 L 374.568659,368.541932 L 374.891764,354.576834 L 375.214869,339.259060 L 375.537974,322.741480 L 375.861079,305.189158 L 376.184184,286.777694 L 376.507289,267.691458 L 376.830394,248.121729 L 377.153499,228.264766 L 377.476603,208.319831 L 377.799708,188.487170 L 378.122813,168.965999 L 378.445918,149.952480 L 378.769023,131.637746 L 379.092128,114.205964 L 379.415233,97.832470 L 379.738338,82.681996 L 380.061443,68.907005 L 380.384548,56.646140 L 380.707653,46.022828 L 381.030758,37.144024 L 381.353863,30.099128 L 381.676968,24.959083 L 382.000073,21.775652 L 382.323178,20.580897 L 382.646283,21.386849 L 382.969388,24.185392 L 383.292493,28.948341 L 383.615598,35.627729 L 383.938703,44.156296 L 384.261808,54.448163 L 384.584913,66.399711 L 384.908017,79.890624 L 385.231122,94.785112 L 385.554227,110.933284 L 385.877332,128.172668 L 386.200437,146.329853 L 386.523542,165.222246 L 386.846647,184.659921 L 387.169752,204.447538 L 387.492857,224.386319 L 387.815962,244.276059 L 388.139067,263.917148 L 388.462172,283.112584 L 388.785277,301.669969 L 389.108382,319.403440 L 389.431487,336.135549 L 389.754592,351.699051 L 390.077697,365.938579 L 390.400802,378.712213 L 390.723907,389.892896 L 391.047012,399.369715 L 391.370117,407.049000 L 391.693222,412.855258 L 392.016327,416.731923 L 392.339431,418.641907 L 392.662536,418.567959 L 392.985641,416.512817 L 393.308746,412.499163 L 393.631851,406.569374 L 393.954956,398.785071 L 394.278061,389.226476 L 394.601166,377.991585 L 394.924271,365.195152 L 395.247376,350.967515 L 395.570481,335.453256 L 395.893586,318.809727 L 396.216691,301.205444 L 396.539796,282.818369 L 396.862901,263.834100 L 397.186006,244.443985 L 397.509111,224.843185 L 397.832216,205.228695 L 398.155321,185.797351 L 398.478426,166.743842 L 398.801531,148.258750 L 399.124636,130.526628 L 399.447741,113.724149 L 399.770845,98.018330 L 400.093950,83.564866 L 400.417055,70.506574 L 400.740160,58.971972 L 401.063265,49.074010 L 401.386370,40.908953 L 401.709475,34.555441 L 402.032580,30.073727 L 402.355685,27.505105 L 402.678790,26.871528 L 403.001895,28.175423 L 403.325000,31.399709 L 403.648105,36.508004 L 403.971210,43.445039 L 404.294315,52.137250 L 404.617420,62.493561 L 404.940525,74.406348 L 405.263630,87.752552 L 405.586735,102.394965 L 405.909840,118.183647 L 406.232945,134.957465 L 406.556050,152.545753 L 406.879155,170.770053 L 407.202259,189.445943 L 407.525364,208.384908 L 407.848469,227.396259 L 408.171574,246.289066 L 408.494679,264.874082 L 408.817784,282.965655 L 409.140889,300.383595 L 409.463994,316.954977 L 409.787099,332.515872 L 410.110204,346.912976 L 410.433309,360.005132 L 410.756414,371.664722 L 411.079519,381.778918 L 411.402624,390.250781 L 411.725729,397.000194 L 412.048834,401.964622 L 412.371939,405.099692 L 412.695044,406.379589 L 413.018149,405.797258 L 413.341254,403.364422 L 413.664359,399.111399 L 413.987464,393.086742 L 414.310569,385.356691 L 414.633673,376.004443 L 414.956778,365.129258 L 415.279883,352.845404 L 415.602988,339.280950 L 415.926093,324.576428 L 416.249198,308.883367 L 416.572303,292.362725 L 416.895408,275.183228 L 417.218513,257.519639 L 417.541618,239.550968 L 417.864723,221.458648 L 418.187828,203.424688 L 418.510933,185.629838 L 418.834038,168.251758 L 419.157143,151.463238 L 419.480248,135.430466 L 419.803353,120.311376 L 420.126458,106.254078 L 420.449563,93.395400 L 420.772668,81.859549 L 421.095773,71.756906 L 421.418878,63.182961 L 421.741983,56.217407 L 422.065087,50.923403 L 422.388192,47.347000 L 422.711297,45.516744 L 423.034402,45.443464 L 423.357507,47.120236 L 423.680612,50.522529 L 424.003717,55.608529 L 424.326822,62.319637 L 424.649927,70.581138 L 424.973032,80.303024 L 425.296137,91.380978 L 425.619242,103.697491 L 425.942347,117.123117 L 426.265452,131.517829 L 426.588557,146.732496 L 426.911662,162.610426 L 427.234767,178.988996 L 427.557872,195.701323 L 427.880977,212.577971 L 428.204082,229.448689 L 428.527187,246.144128 L 428.850292,262.497558 L 429.173397,278.346545 L 429.496501,293.534568 L 429.819606,307.912582 L 430.142711,321.340486 L 430.465816,333.688495 L 430.788921,344.838405 L 431.112026,354.684728 L 431.435131,363.135694 L 431.758236,370.114107 L 432.081341,375.558053 L 432.404446,379.421439 L 432.727551,381.674377 L 433.050656,382.303401 L 433.373761,381.311503 L 433.696866,378.718022 L 434.019971,374.558347 L 434.343076,368.883469 L 434.666181,361.759378 L 434.989286,353.266302 L 435.312391,343.497811 L 435.635496,332.559795 L 435.958601,320.569306 L 436.281706,307.653316 L 436.604810,293.947360 L 436.927915,279.594110 L 437.251020,264.741886 L 437.574125,249.543116 L 437.897230,234.152759 L 438.220335,218.726719 L 438.543440,203.420257 L 438.866545,188.386416 L 439.189650,173.774481 L 439.512755,159.728490 L 439.835860,146.385803 L 440.158965,133.875751 L 440.482070,122.318374 L 440.805175,111.823265 L 441.128280,102.488526 L 441.451385,94.399849 L 441.774490,87.629730 L 442.097595,82.236822 L 442.420700,78.265435 L 442.743805,75.745186 L 443.066910,74.690802 L 443.390015,75.102077 L 443.713120,76.963977 L 444.036224,80.246905 L 444.359329,84.907103 L 444.682434,90.887206 L 445.005539,98.116924 L 445.328644,106.513854 L 445.651749,115.984408 L 445.974854,126.424856 L 446.297959,137.722452 L 446.621064,149.756660 L 446.944169,162.400435 L 447.267274,175.521572 L 447.590379,188.984094 L 447.913484,202.649668 L 448.236589,216.379030 L 448.559694,230.033418 L 448.882799,243.475982 L 449.205904,256.573159 L 449.529009,269.196015 L 449.852114,281.221521 L 450.175219,292.533756 L 450.498324,303.025033 L 450.821429,312.596929 L 451.144534,321.161210 L 451.467638,328.640644 L 451.790743,334.969696 L 452.113848,340.095094 L 452.436953,343.976266 L 452.760058,346.585643 L 453.083163,347.908823 L 453.406268,347.944599 L 453.729373,346.704854 L 454.052478,344.214319 L 454.375583,340.510199 L 454.698688,335.641678 L 455.021793,329.669305 L 455.344898,322.664261 L 455.668003,314.707535 L 455.991108,305.888997 L 456.314213,296.306390 L 456.637318,286.064255 L 456.960423,275.272787 L 457.283528,264.046653 L 457.606633,252.503770 L 457.929738,240.764058 L 458.252843,228.948197 L 458.575948,217.176369 L 458.899052,205.567037 L 459.222157,194.235743 L 459.545262,183.293949 L 459.868367,172.847933 L 460.191472,162.997756 L 460.514577,153.836292 L 460.837682,145.448355 L 461.160787,137.909910 L 461.483892,131.287385 L 461.806997,125.637100 L 462.130102,121.004789 L 462.453207,117.425254 L 462.776312,114.922124 L 463.099417,113.507742 L 463.422522,113.183168 L 463.745627,113.938295 L 464.068732,115.752083 L 464.391837,118.592910 L 464.714942,122.419021 L 465.038047,127.179081 L 465.361152,132.812822 L 465.684257,139.251777 L 466.007362,146.420086 L 466.330466,154.235381 L 466.653571,162.609711 L 466.976676,171.450533 L 467.299781,180.661729 L 467.622886,190.144645 L 467.945991,199.799158 L 468.269096,209.524727 L 468.592201,219.221452 L 468.915306,228.791099 L 469.238411,238.138109 L 469.561516,247.170550 L 469.884621,255.801034 L 470.207726,263.947562 L 470.530831,271.534310 L 470.853936,278.492333 L 471.177041,284.760193 L 471.500146,290.284494 L 471.823251,295.020327 L 472.146356,298.931621 L 472.469461,301.991392 L 472.792566,304.181893 L 473.115671,305.494669 L 473.438776,305.930503 L 473.761880,305.499272 L 474.084985,304.219708 L 474.408090,302.119060 L 474.731195,299.232685 L 475.054300,295.603540 L 475.377405,291.281615 L 475.700510,286.323294 L 476.023615,280.790651 L 476.346720,274.750710 L 476.669825,268.274643 L 476.992930,261.436958 L 477.316035,254.314642 L 477.639140,246.986309 L 477.962245,239.531329 L 478.285350,232.028971 L 478.608455,224.557560 L 478.931560,217.193653 L 479.254665,210.011252 L 479.577770,203.081055 L 479.900875,196.469757 L 480.223980,190.239401 L 480.547085,184.446799 L 480.870190,179.143012 L 481.193294,174.372905 L 481.516399,170.174777 L 481.839504,166.580068 L 482.162609,163.613151 L 482.485714,161.291196 L 482.808819,159.624129 L 483.131924,158.614656 L 483.455029,158.258384 L 483.778134,158.544000 L 484.101239,159.453539 L 484.424344,160.962716 L 484.747449,163.041315 L 485.070554,165.653651 L 485.393659,168.759072 L 485.716764,172.312516 L 486.039869,176.265103 L 486.362974,180.564757 L 486.686079,185.156860 L 487.009184,189.984915 L 487.332289,194.991216 L 487.655394,200.117530 L 487.978499,205.305759 L 488.301603,210.498592 L 488.624708,215.640141 L 488.947813,220.676539 L 489.270918,225.556506 L 489.594023,230.231876 L 489.917128,234.658076 L 490.240233,238.794549 L 490.563338,242.605132 L 490.886443,246.058360 L 491.209548,249.127723 L 491.532653,251.791851 L 491.855758,254.034635 L 492.178863,255.845287 L 492.501968,257.218327 L 492.825073,258.153522 L 493.148178,258.655744 L 493.471283,258.734786 L 493.794388,258.405115 L 494.117493,257.685571 L 494.440598,256.599027 L 494.763703,255.172002 L 495.086808,253.434234 L 495.409913,251.418234 L 495.733017,249.158802 L 496.056122,246.692535 L 496.379227,244.057317 L 496.702332,241.291806 L 497.025437,238.434927 L 497.348542,235.525362 L 497.671647,232.601063 L 497.994752,229.698781 L 498.317857,226.853625 L 498.640962,224.098641 L 498.964067,221.464443 L 499.287172,218.978864 L 499.610277,216.666670 L 499.933382,214.549306 L 500.256487,212.644702 L 500.579592,210.967117 L 500.902697,209.527052 L 501.225802,208.331202 L 501.548907,207.382463 L 501.872012,206.679999 L 502.195117,206.219349 L 502.518222,205.992589 L 502.841327,205.988531 L 503.164431,206.192978 L 503.487536,206.588999 L 503.810641,207.157257 L 504.133746,207.876349 L 504.456851,208.723181 L 504.779956,209.673359 L 505.103061,210.701594 L 505.426166,211.782109 L 505.749271,212.889058 L 506.072376,213.996934 L 506.395481,215.080965 L 506.718586,216.117508 L 507.041691,217.084408 L 507.364796,217.961339 L 507.687901,218.730116 L 508.011006,219.374973 L 508.334111,219.882799 L 508.657216,220.243337 L 508.980321,220.449341 L 509.303426,220.496683 L 509.626531,220.384415 L 509.949636,220.114785 L 510.272741,219.693202 L 510.595845,219.128154 L 510.918950,218.431080 L 511.242055,217.616201 L 511.565160,216.700299 L 511.888265,215.702466 L 512.211370,214.643812 L 512.534475,213.547141 L 512.857580,212.436603 L 513.180685,211.337314 L 513.503790,210.274970 L 513.826895,209.275438 L 514.150000,208.364346 L 514.473105,207.566669 L 514.796210,206.906318 L 515.119315,206.405746 L 515.442420,206.085556 L 515.765525,205.964147 L 516.088630,206.057373 L 516.411735,206.378236 L 516.734840,206.936624 L 517.057945,207.739070 L 517.381050,208.788578 L 517.704155,210.084472 L 518.027259,211.622314 L 518.350364,213.393856 L 518.673469,215.387059 L 518.996574,217.586153 L 519.319679,219.971756 L 519.642784,222.521044 L 519.965889,225.207969 L 520.288994,228.003525 L 520.612099,230.876066 L 520.935204,233.791657 L 521.258309,236.714469 L 521.581414,239.607206 L 521.904519,242.431560 L 522.227624,245.148691 L 522.550729,247.719722 L 522.873834,250.106247 L 523.196939,252.270845 L 523.520044,254.177590 L 523.843149,255.792556 L 524.166254,257.084305 L 524.489359,258.024356 L 524.812464,258.587628 L 525.135569,258.752845 L 525.458673,258.502909 L 525.781778,257.825226 L 526.104883,256.711979 L 526.427988,255.160356 L 526.751093,253.172716 L 527.074198,250.756695 L 527.397303,247.925251 L 527.720408,244.696648 L 528.043513,241.094368 L 528.366618,237.146964 L 528.689723,232.887850 L 529.012828,228.355020 L 529.335933,223.590714 L 529.659038,218.641024 L 529.982143,213.555444 L 530.305248,208.386375 L 530.628353,203.188577 L 530.951458,198.018592 L 531.274563,192.934129 L 531.597668,187.993421 L 531.920773,183.254569 L 532.243878,178.774865 L 532.566983,174.610124 L 532.890087,170.814007 L 533.213192,167.437366 L 533.536297,164.527599 L 533.859402,162.128041 L 534.182507,160.277385 L 534.505612,159.009147 L 534.828717,158.351179 L 535.151822,158.325236 L 535.474927,158.946608 L 535.798032,160.223818 L 536.121137,162.158385 L 536.444242,164.744671 L 536.767347,167.969799 L 537.090452,171.813655 L 537.413557,176.248965 L 537.736662,181.241467 L 538.059767,186.750147 L 538.382872,192.727566 L 538.705977,199.120264 L 539.029082,205.869231 L 539.352187,212.910455 L 539.675292,220.175529 L 539.998397,227.592322 L 540.321501,235.085698 L 540.644606,242.578284 L 540.967711,249.991268 L 541.290816,257.245238 L 541.613921,264.261027 L 541.937026,270.960580 L 542.260131,277.267816 L 542.583236,283.109486 L 542.906341,288.416008 L 543.229446,293.122283 L 543.552551,297.168465 L 543.875656,300.500695 L 544.198761,303.071774 L 544.521866,304.841776 L 544.844971,305.778590 L 545.168076,305.858391 L 545.491181,305.066020 L 545.814286,303.395279 L 546.137391,300.849137 L 546.460496,297.439834 L 546.783601,293.188891 L 547.106706,288.127017 L 547.429810,282.293919 L 547.752915,275.738012 L 548.076020,268.516026 L 548.399125,260.692527 L 548.722230,252.339342 L 549.045335,243.534901 L 549.368440,234.363496 L 549.691545,224.914472 L 550.014650,215.281352 L 550.337755,205.560903 L 550.660860,195.852160 L 550.983965,186.255410 L 551.307070,176.871151 L 551.630175,167.799038 L 551.953280,159.136816 L 552.276385,150.979274 L 552.599490,143.417205 L 552.922595,136.536401 L 553.245700,130.416690 L 553.568805,125.131022 L 553.891910,120.744618 L 554.215015,117.314191 L 554.538120,114.887247 L 554.861224,113.501474 L 555.184329,113.184233 L 555.507434,113.952144 L 555.830539,115.810788 L 556.153644,118.754519 L 556.476749,122.766387 L 556.799854,127.818193 L 557.122959,133.870645 L 557.446064,140.873649 L 557.769169,148.766705 L 558.092274,157.479422 L 558.415379,166.932144 L 558.738484,177.036672 L 559.061589,187.697094 L 559.384694,198.810696 L 559.707799,210.268958 L 560.030904,221.958621 L 560.354009,233.762810 L 560.677114,245.562215 L 561.000219,257.236302 L 561.323324,268.664549 L 561.646429,279.727700 L 561.969534,290.309014 L 562.292638,300.295501 L 562.615743,309.579126 L 562.938848,318.057984 L 563.261953,325.637412 L 563.585058,332.231042 L 563.908163,337.761773 L 564.231268,342.162660 L 564.554373,345.377702 L 564.877478,347.362526 L 565.200583,348.084956 L 565.523688,347.525458 L 565.846793,345.677459 L 566.169898,342.547534 L 566.493003,338.155462 L 566.816108,332.534135 L 567.139213,325.729343 L 567.462318,317.799414 L 567.785423,308.814722 L 568.108528,298.857072 L 568.431633,288.018954 L 568.754738,276.402682 L 569.077843,264.119426 L 569.400948,251.288143 L 569.724052,238.034420 L 570.047157,224.489231 L 570.370262,210.787644 L 570.693367,197.067456 L 571.016472,183.467805 L 571.339577,170.127747 L 571.662682,157.184830 L 571.985787,144.773664 L 572.308892,133.024516 L 572.631997,122.061939 L 572.955102,112.003448 L 573.278207,102.958260 L 573.601312,95.026104 L 573.924417,88.296132 L 574.247522,82.845917 L 574.570627,78.740578 L 574.893732,76.032010 L 575.216837,74.758261 L 575.539942,74.943038 L 575.863047,76.595356 L 576.186152,79.709344 L 576.509257,84.264196 L 576.832362,90.224277 L 577.155466,97.539382 L 577.478571,106.145152 L 577.801676,115.963629 L 578.124781,126.903963 L 578.447886,138.863254 L 578.770991,151.727521 L 579.094096,165.372791 L 579.417201,179.666307 L 579.740306,194.467821 L 580.063411,209.630980 L 580.386516,225.004786 L 580.709621,240.435104 L 581.032726,255.766220 L 581.355831,270.842422 L 581.678936,285.509593 L 582.002041,299.616788 L 582.325146,313.017805 L 582.648251,325.572702 L 582.971356,337.149264 "/>
</g>
</g>
</svg>
